# xmcd
#
# Track frame offsets:
#	150
#	28371
#	47360
#	72105
#	89900
#	126224
#	150548
#	175633
#	207332
#	236381
#	265457
#
# Disc length: 4026 seconds
#
# Revision: 0
# Processed by: cddbd v1.5.2PL0 Copyright (c) Steve Scherf et al.
# Submitted via: EasyCDDAExtractor 16.0.6.1
#
DISCID=960fb80b
DTITLE=Linus Reichlin - Das Leuchten in der Ferne
DYEAR=1900
DGENRE=
TTITLE0=401
TTITLE1=402
TTITLE2=403
TTITLE3=404
TTITLE4=405
TTITLE5=406
TTITLE6=407
TTITLE7=408
TTITLE8=409
TTITLE9=410
TTITLE10=411
EXTD=
EXTT0=
EXTT1=
EXTT2=
EXTT3=
EXTT4=
EXTT5=
EXTT6=
EXTT7=
EXTT8=
EXTT9=
EXTT10=
PLAYORDER=
